<?xml version="1.0" encoding="us-ascii" standalone="no"?><svg xmlns="http://www.w3.org/2000/svg" xmlns:xlink="http://www.w3.org/1999/xlink" contentStyleType="text/css" height="219px" preserveAspectRatio="none" style="width:573px;height:219px;background:#FFFFFF;" version="1.1" viewBox="0 0 573 219" width="573px" zoomAndPan="magnify"><defs/><g><!--class Request--><g id="elem_Request"><rect codeLine="2" fill="#F1F1F1" height="48" id="Request" rx="2.5" ry="2.5" style="stroke:#181818;stroke-width:0.5;" width="90" x="136.5" y="148.5"/><ellipse cx="151.5" cy="164.5" fill="#ADD1B2" rx="11" ry="11" style="stroke:#181818;stroke-width:1.0;"/><path d="M154.4688,170.1406 Q153.8906,170.4375 153.25,170.5781 Q152.6094,170.7344 151.9063,170.7344 Q149.4063,170.7344 148.0781,169.0938 Q146.7656,167.4375 146.7656,164.3125 Q146.7656,161.1875 148.0781,159.5313 Q149.4063,157.875 151.9063,157.875 Q152.6094,157.875 153.25,158.0313 Q153.9063,158.1875 154.4688,158.4844 L154.4688,161.2031 Q153.8438,160.625 153.25,160.3594 Q152.6563,160.0781 152.0313,160.0781 Q150.6875,160.0781 150,161.1563 Q149.3125,162.2188 149.3125,164.3125 Q149.3125,166.4063 150,167.4844 Q150.6875,168.5469 152.0313,168.5469 Q152.6563,168.5469 153.25,168.2813 Q153.8438,168 154.4688,167.4219 L154.4688,170.1406 Z " fill="#000000"/><text fill="#000000" font-family="sans-serif" font-size="14" lengthAdjust="spacing" textLength="58" x="165.5" y="169.3467">Request</text><line style="stroke:#181818;stroke-width:0.5;" x1="137.5" x2="225.5" y1="180.5" y2="180.5"/><line style="stroke:#181818;stroke-width:0.5;" x1="137.5" x2="225.5" y1="188.5" y2="188.5"/></g><!--class ObfuscationRequest--><g id="elem_ObfuscationRequest"><rect codeLine="4" fill="#F1F1F1" height="64.2969" id="ObfuscationRequest" rx="2.5" ry="2.5" style="stroke:#181818;stroke-width:0.5;" width="175" x="7" y="7"/><ellipse cx="22" cy="23" fill="#ADD1B2" rx="11" ry="11" style="stroke:#181818;stroke-width:1.0;"/><path d="M24.9688,28.6406 Q24.3906,28.9375 23.75,29.0781 Q23.1094,29.2344 22.4063,29.2344 Q19.9063,29.2344 18.5781,27.5938 Q17.2656,25.9375 17.2656,22.8125 Q17.2656,19.6875 18.5781,18.0313 Q19.9063,16.375 22.4063,16.375 Q23.1094,16.375 23.75,16.5313 Q24.4063,16.6875 24.9688,16.9844 L24.9688,19.7031 Q24.3438,19.125 23.75,18.8594 Q23.1563,18.5781 22.5313,18.5781 Q21.1875,18.5781 20.5,19.6563 Q19.8125,20.7188 19.8125,22.8125 Q19.8125,24.9063 20.5,25.9844 Q21.1875,27.0469 22.5313,27.0469 Q23.1563,27.0469 23.75,26.7813 Q24.3438,26.5 24.9688,25.9219 L24.9688,28.6406 Z " fill="#000000"/><text fill="#000000" font-family="sans-serif" font-size="14" lengthAdjust="spacing" textLength="143" x="36" y="27.8467">ObfuscationRequest</text><line style="stroke:#181818;stroke-width:0.5;" x1="8" x2="181" y1="39" y2="39"/><text fill="#000000" font-family="sans-serif" font-size="14" lengthAdjust="spacing" textLength="162" x="13" y="55.9951">List&lt;String&gt; Keywords</text><line style="stroke:#181818;stroke-width:0.5;" x1="8" x2="181" y1="63.2969" y2="63.2969"/></g><!--class RequestId--><g id="elem_RequestId"><rect codeLine="8" fill="#F1F1F1" height="64.2969" id="RequestId" rx="2.5" ry="2.5" style="stroke:#181818;stroke-width:0.5;" width="103" x="217" y="7"/><ellipse cx="232" cy="23" fill="#ADD1B2" rx="11" ry="11" style="stroke:#181818;stroke-width:1.0;"/><path d="M234.9688,28.6406 Q234.3906,28.9375 233.75,29.0781 Q233.1094,29.2344 232.4063,29.2344 Q229.9063,29.2344 228.5781,27.5938 Q227.2656,25.9375 227.2656,22.8125 Q227.2656,19.6875 228.5781,18.0313 Q229.9063,16.375 232.4063,16.375 Q233.1094,16.375 233.75,16.5313 Q234.4063,16.6875 234.9688,16.9844 L234.9688,19.7031 Q234.3438,19.125 233.75,18.8594 Q233.1563,18.5781 232.5313,18.5781 Q231.1875,18.5781 230.5,19.6563 Q229.8125,20.7188 229.8125,22.8125 Q229.8125,24.9063 230.5,25.9844 Q231.1875,27.0469 232.5313,27.0469 Q233.1563,27.0469 233.75,26.7813 Q234.3438,26.5 234.9688,25.9219 L234.9688,28.6406 Z " fill="#000000"/><text fill="#000000" font-family="sans-serif" font-size="14" lengthAdjust="spacing" textLength="71" x="246" y="27.8467">RequestId</text><line style="stroke:#181818;stroke-width:0.5;" x1="218" x2="319" y1="39" y2="39"/><rect fill="none" height="6" style="stroke:#C82930;stroke-width:1.0;" width="6" x="225" y="49.6484"/><text fill="#000000" font-family="sans-serif" font-size="14" lengthAdjust="spacing" textLength="13" x="237" y="55.9951">id</text><line style="stroke:#181818;stroke-width:0.5;" x1="218" x2="319" y1="63.2969" y2="63.2969"/></g><!--class Prompt--><g id="elem_Prompt"><rect codeLine="11" fill="#F1F1F1" height="64.2969" id="Prompt" rx="2.5" ry="2.5" style="stroke:#181818;stroke-width:0.5;" width="83" x="299" y="140.5"/><ellipse cx="314" cy="156.5" fill="#ADD1B2" rx="11" ry="11" style="stroke:#181818;stroke-width:1.0;"/><path d="M316.9688,162.1406 Q316.3906,162.4375 315.75,162.5781 Q315.1094,162.7344 314.4063,162.7344 Q311.9063,162.7344 310.5781,161.0938 Q309.2656,159.4375 309.2656,156.3125 Q309.2656,153.1875 310.5781,151.5313 Q311.9063,149.875 314.4063,149.875 Q315.1094,149.875 315.75,150.0313 Q316.4063,150.1875 316.9688,150.4844 L316.9688,153.2031 Q316.3438,152.625 315.75,152.3594 Q315.1563,152.0781 314.5313,152.0781 Q313.1875,152.0781 312.5,153.1563 Q311.8125,154.2188 311.8125,156.3125 Q311.8125,158.4063 312.5,159.4844 Q313.1875,160.5469 314.5313,160.5469 Q315.1563,160.5469 315.75,160.2813 Q316.3438,160 316.9688,159.4219 L316.9688,162.1406 Z " fill="#000000"/><text fill="#000000" font-family="sans-serif" font-size="14" lengthAdjust="spacing" textLength="51" x="328" y="161.3467">Prompt</text><line style="stroke:#181818;stroke-width:0.5;" x1="300" x2="381" y1="172.5" y2="172.5"/><rect fill="none" height="6" style="stroke:#C82930;stroke-width:1.0;" width="6" x="307" y="183.1484"/><text fill="#000000" font-family="sans-serif" font-size="14" lengthAdjust="spacing" textLength="52" x="319" y="189.4951">prompt</text><line style="stroke:#181818;stroke-width:0.5;" x1="300" x2="381" y1="196.7969" y2="196.7969"/></g><!--class Pii--><g id="elem_Pii"><rect codeLine="15" fill="#F1F1F1" height="80.5938" id="Pii" rx="2.5" ry="2.5" style="stroke:#181818;stroke-width:0.5;" width="80" x="486.5" y="132"/><ellipse cx="515.9" cy="148" fill="#ADD1B2" rx="11" ry="11" style="stroke:#181818;stroke-width:1.0;"/><path d="M518.8688,153.6406 Q518.2906,153.9375 517.65,154.0781 Q517.0094,154.2344 516.3063,154.2344 Q513.8063,154.2344 512.4781,152.5938 Q511.1656,150.9375 511.1656,147.8125 Q511.1656,144.6875 512.4781,143.0313 Q513.8063,141.375 516.3063,141.375 Q517.0094,141.375 517.65,141.5313 Q518.3063,141.6875 518.8688,141.9844 L518.8688,144.7031 Q518.2438,144.125 517.65,143.8594 Q517.0563,143.5781 516.4313,143.5781 Q515.0875,143.5781 514.4,144.6563 Q513.7125,145.7188 513.7125,147.8125 Q513.7125,149.9063 514.4,150.9844 Q515.0875,152.0469 516.4313,152.0469 Q517.0563,152.0469 517.65,151.7813 Q518.2438,151.5 518.8688,150.9219 L518.8688,153.6406 Z " fill="#000000"/><text fill="#000000" font-family="sans-serif" font-size="14" lengthAdjust="spacing" textLength="16" x="533.1" y="152.8467">Pii</text><line style="stroke:#181818;stroke-width:0.5;" x1="487.5" x2="565.5" y1="164" y2="164"/><rect fill="none" height="6" style="stroke:#C82930;stroke-width:1.0;" width="6" x="494.5" y="174.6484"/><text fill="#000000" font-family="sans-serif" font-size="14" lengthAdjust="spacing" textLength="13" x="506.5" y="180.9951">id</text><rect fill="none" height="6" style="stroke:#C82930;stroke-width:1.0;" width="6" x="494.5" y="190.9453"/><text fill="#000000" font-family="sans-serif" font-size="14" lengthAdjust="spacing" textLength="54" x="506.5" y="197.292">content</text><line style="stroke:#181818;stroke-width:0.5;" x1="487.5" x2="565.5" y1="204.5938" y2="204.5938"/></g><!--link Prompt to Pii--><g id="link_Prompt_Pii"><path codeLine="20" d="M382.24,172.5 C413.41,172.5 455.75,172.5 486.49,172.5 " fill="none" id="Prompt-Pii" style="stroke:#181818;stroke-width:1.0;"/><polygon fill="#000000" points="409.25,161.0664,400.2049,158.1275,400.2049,164.0053,409.25,161.0664" style="stroke:#000000;stroke-width:1.0;"/><text fill="#000000" font-family="sans-serif" font-size="13" lengthAdjust="spacing" textLength="55" x="413.25" y="165.5669">contains</text><text fill="#000000" font-family="sans-serif" font-size="13" lengthAdjust="spacing" textLength="8" x="390.1016" y="168.2637">1</text><text fill="#000000" font-family="sans-serif" font-size="13" lengthAdjust="spacing" textLength="23" x="455.6025" y="185.7566">1..*</text></g><!--link Request to Prompt--><g id="link_Request_Prompt"><path codeLine="21" d="M226.64,172.5 C249.32,172.5 276.61,172.5 298.79,172.5 " fill="none" id="Request-Prompt" style="stroke:#181818;stroke-width:1.0;"/><polygon fill="#000000" points="253.75,161.0664,244.7049,158.1275,244.7049,164.0053,253.75,161.0664" style="stroke:#000000;stroke-width:1.0;"/><text fill="#000000" font-family="sans-serif" font-size="13" lengthAdjust="spacing" textLength="23" x="257.75" y="165.5669">has</text><text fill="#000000" font-family="sans-serif" font-size="13" lengthAdjust="spacing" textLength="8" x="234.4717" y="168.3822">1</text><text fill="#000000" font-family="sans-serif" font-size="13" lengthAdjust="spacing" textLength="8" x="282.9336" y="168.2637">1</text></g><!--reverse link RequestId to Request--><g id="link_RequestId_Request"><path codeLine="23" d="M244.5694,76.164 C228.8894,99.864 210.98,126.94 196.8,148.38 " fill="none" id="RequestId-backto-Request" style="stroke:#181818;stroke-width:1.0;"/><polygon fill="#181818" points="247.88,71.16,239.5781,76.4589,245.1211,75.33,246.25,80.873,247.88,71.16" style="stroke:#181818;stroke-width:1.0;"/></g><!--link ObfuscationRequest to Request--><g id="link_ObfuscationRequest_Request"><path codeLine="25" d="M115.12,71.16 C130.8,94.86 142.0904,111.9266 156.2704,133.3666 " fill="none" id="ObfuscationRequest-to-Request" style="stroke:#181818;stroke-width:1.0;"/><polygon fill="none" points="166.2,148.38,161.2749,130.0567,151.2659,136.6764,166.2,148.38" style="stroke:#181818;stroke-width:1.0;"/></g><!--SRC=[ROz13i8W44NtSue9InEQTDiqtHjDD7e21DH956g7nXZrxb9QsesiOFvxyD4tnOm7- -Wj1tn_0NIQx4xddhKAvDqS0iQr9GxrCNJaBWrkxElfEyCmUnEyDWCkaKoCncJV-NkRRv7OfkCYxedcB5hZHdiNh4lKf8jInBaeYs8babCbI95ZR21NpPJ8hrPuLGC0IxzQ6fdh0lpvhvIV9WC_]--></g></svg>